<svg width="95" height="95" viewBox="0 0 95 95" fill="none" xmlns="http://www.w3.org/2000/svg">
<path d="M34.0004 73.3129H10.2299C4.83177 73.3129 0.475418 68.9566 0.475418 63.5585V8.91461C0.475418 4.17944 4.35826 0.2966 9.09343 0.2966C13.8286 0.2966 17.7114 4.17944 17.7114 8.91461V64.6949L15.9121 63.0849C15.7227 62.8955 10.6087 58.5392 5.11588 61.2856C4.54766 61.5697 3.88474 61.2856 3.69533 60.8121C3.41122 60.2438 3.69533 59.5809 4.16885 59.3915C8.90402 57.1186 13.2604 58.8233 15.5333 60.2438V8.91461C15.5333 5.41058 12.6922 2.47478 9.09343 2.47478C5.4947 2.47478 2.6536 5.31588 2.6536 8.91461V63.5585C2.6536 67.7254 6.06292 71.1347 10.2299 71.1347H34.0951C34.6633 71.1347 35.2316 71.6083 35.2316 72.2712C35.1369 72.8394 34.5686 73.3129 34.0004 73.3129Z" fill="white"/>
<path d="M83.8144 45.0913C83.2462 45.0913 82.678 44.6178 82.678 43.9549V10.2405H20.7419C20.1737 10.2405 19.6055 9.76695 19.6055 9.10403C19.6055 8.53581 20.079 7.96759 20.7419 7.96759H84.9508V43.8602C84.9508 44.5231 84.3826 45.0913 83.8144 45.0913Z" fill="white"/>
<path d="M49.8159 76.9116C49.5318 76.9116 49.2477 76.8169 49.0583 76.6275L42.2396 69.8089C42.0502 69.6195 41.9555 69.3354 41.9555 69.0513C41.9555 68.7671 42.0502 68.483 42.2396 68.2936L68.2831 42.3449C68.7566 41.9661 69.4195 41.9661 69.7983 42.3449C70.2718 42.8184 70.1771 43.4813 69.7983 43.8602L44.6072 68.9566L49.8159 74.1652L75.1017 49.0688C75.5752 48.69 76.2381 48.69 76.6169 49.0688C76.9958 49.5424 76.9958 50.2053 76.6169 50.5841L50.5735 76.5328C50.3841 76.8169 50.1 76.9116 49.8159 76.9116Z" fill="white"/>
<path d="M45.1754 80.7945C44.4178 80.7945 43.6602 80.5104 43.0919 79.9421L38.925 75.7752C38.3568 75.207 38.0727 74.4493 38.0727 73.6917C38.0727 72.9341 38.3568 72.1765 38.925 71.6083L42.2396 68.2936C42.7131 67.9148 43.3761 67.9148 43.7549 68.2936C44.1337 68.7671 44.1337 69.4301 43.7549 69.8089L40.4402 73.1235C40.3455 73.2182 40.2508 73.4076 40.2508 73.6917C40.2508 73.8811 40.3455 74.0705 40.4402 74.2599L44.6072 78.4269C44.7019 78.6163 44.8913 78.6163 45.1754 78.6163C45.3648 78.6163 45.5542 78.5216 45.7436 78.4269L49.0583 75.1123C49.5318 74.7335 50.1947 74.7335 50.5735 75.1123C51.047 75.5858 50.9523 76.2487 50.5735 76.6275L47.2589 79.8474C46.6907 80.4157 45.933 80.7945 45.1754 80.7945Z" fill="white"/>
<path d="M75.8593 50.8682C75.7646 50.8682 75.6699 50.8682 75.5752 50.8682H75.4805C71.8818 49.8265 69.0407 46.9854 68.0936 43.3866C67.9042 42.8184 68.283 42.2502 68.7566 42.0608L78.7951 38.6515C79.1739 38.5568 79.6474 38.6515 79.9316 38.9356C80.2157 39.2197 80.3104 39.6932 80.2157 40.072L76.9958 50.3C76.7116 50.5841 76.3328 50.8682 75.8593 50.8682ZM70.4612 43.6708C71.3135 45.7542 73.0182 47.5536 75.1964 48.4059L77.4693 41.3032L70.4612 43.6708Z" fill="white"/>
<path d="M65.5367 54.2775C65.2525 54.2775 64.9684 54.1828 64.779 53.9934C64.3055 53.6146 64.3055 52.857 64.779 52.4782L68.5672 48.69C68.946 48.2165 69.7036 48.2165 70.0824 48.69C70.5559 49.0689 70.5559 49.8265 70.0824 50.2053L66.2943 53.9934C66.1049 54.1828 65.8208 54.2775 65.5367 54.2775Z" fill="white"/>
<path d="M94.8 95H37.978L94.8 38.1779V95ZM43.2814 92.8218H92.6218V43.3866L43.2814 92.8218ZM85.1403 85.3402H61.275L85.1403 61.475V85.3402ZM66.5784 83.1621H82.9621V66.7784L66.5784 83.1621Z" fill="white"/>
<path d="M91.3907 53.2358H89.8754C89.3072 53.2358 88.739 52.7623 88.739 52.0994C88.739 51.4364 89.2125 50.9629 89.8754 50.9629H91.3907C91.9589 50.9629 92.5271 51.4364 92.5271 52.0994C92.5271 52.7623 91.9589 53.2358 91.3907 53.2358Z" fill="white"/>
<path d="M91.3907 57.6869H88.5496C87.9813 57.6869 87.4131 57.2133 87.4131 56.5504C87.4131 55.9822 87.8866 55.414 88.5496 55.414H91.3907C91.9589 55.414 92.5271 55.8875 92.5271 56.5504C92.4324 57.2133 91.9589 57.6869 91.3907 57.6869Z" fill="white"/>
<path d="M91.3907 62.1379H89.8754C89.3072 62.1379 88.739 61.6644 88.739 61.0015C88.739 60.4332 89.2125 59.865 89.8754 59.865H91.3907C91.9589 59.865 92.5271 60.3385 92.5271 61.0015C92.4324 61.6644 91.9589 62.1379 91.3907 62.1379Z" fill="white"/>
<path d="M91.3907 66.4943H88.5496C87.9813 66.4943 87.4131 66.0207 87.4131 65.3578C87.4131 64.6949 87.8866 64.2214 88.5496 64.2214H91.3907C91.9589 64.2214 92.5271 64.6949 92.5271 65.3578C92.5271 66.0207 91.9589 66.4943 91.3907 66.4943Z" fill="white"/>
<path d="M91.3907 70.9453H89.8754C89.3072 70.9453 88.739 70.4718 88.739 69.8089C88.739 69.146 89.2125 68.6725 89.8754 68.6725H91.3907C91.9589 68.6725 92.5271 69.146 92.5271 69.8089C92.5271 70.4718 91.9589 70.9453 91.3907 70.9453Z" fill="white"/>
<path d="M91.3907 75.3964H88.5496C87.9813 75.3964 87.4131 74.9229 87.4131 74.2599C87.4131 73.597 87.8866 73.1235 88.5496 73.1235H91.3907C91.9589 73.1235 92.5271 73.597 92.5271 74.2599C92.5271 74.9229 91.9589 75.3964 91.3907 75.3964Z" fill="white"/>
<path d="M91.3907 79.7527H89.8754C89.3072 79.7527 88.739 79.2792 88.739 78.6163C88.739 77.9534 89.2125 77.4799 89.8754 77.4799H91.3907C91.9589 77.4799 92.5271 77.9534 92.5271 78.6163C92.5271 79.2792 91.9589 79.7527 91.3907 79.7527Z" fill="white"/>
<path d="M91.3907 84.2038H88.5496C87.9813 84.2038 87.4131 83.7303 87.4131 83.0674C87.4131 82.4044 87.8866 81.9309 88.5496 81.9309H91.3907C91.9589 81.9309 92.5271 82.4044 92.5271 83.0674C92.5271 83.7303 91.9589 84.2038 91.3907 84.2038Z" fill="white"/>
<path d="M91.3907 88.6549H89.8754C89.3072 88.6549 88.739 88.1814 88.739 87.5184C88.739 86.8555 89.2125 86.382 89.8754 86.382H91.3907C91.9589 86.382 92.5271 86.8555 92.5271 87.5184C92.5271 88.1814 91.9589 88.6549 91.3907 88.6549Z" fill="white"/>
</svg>
